<svg width="103" height="96" viewBox="0 0 103 96" fill="none" xmlns="http://www.w3.org/2000/svg">
<path d="M19.3125 68.4037L19.3125 27.4667L57.349 7L95.3854 27.4667L95.3854 68.4037L57.3488 88.8709L19.3125 68.4037ZM22.5965 29.2348L22.5965 66.6361L57.3488 85.3367L92.1014 66.6361L92.1014 29.2348L57.349 10.5342L22.5965 29.2348Z" fill="#049357"/>
<path d="M66.4579 33.64C67.5512 33.88 68.7645 34 70.0979 34C71.4312 34 72.7245 33.88 73.9779 33.64L74.2579 34.96C73.2179 35.0933 72.4579 35.2533 71.9779 35.44C71.5245 35.6267 71.2979 36.0933 71.2979 36.84L72.4979 57.12C72.5512 57.8133 72.7912 58.2667 73.2179 58.48C73.5645 58.64 74.2979 58.8133 75.4179 59L75.1379 60.32C73.3512 60.1067 71.7645 60 70.3779 60C68.9912 60 67.4179 60.1067 65.6579 60.32L65.3779 58.92C66.7645 58.76 67.7112 58.56 68.2179 58.32C68.6979 58.1333 68.9245 57.7333 68.8979 57.12L67.7379 37.12L67.4979 36.92C67.2045 38.2533 66.9245 39.24 66.6579 39.88L60.8979 54.32C60.3645 55.7067 59.8179 57.3067 59.2579 59.12L58.9779 60L56.5779 60.68C55.8312 58.1733 55.1779 56.2267 54.6179 54.84L48.6579 39.92L47.8979 37.28L47.6179 37.48L46.2179 57.12C46.1912 57.4667 46.2179 57.72 46.2979 57.88C46.4045 58.04 46.5779 58.1867 46.8179 58.32C47.2179 58.48 48.0179 58.6533 49.2179 58.84L49.7379 58.92L49.4579 60.32C47.6712 60.1067 46.2845 60 45.2979 60C44.3112 60 42.9245 60.1067 41.1379 60.32L40.8579 59C41.7912 58.8667 42.5112 58.6933 43.0179 58.48C43.4445 58.2667 43.6712 57.8533 43.6979 57.24L45.1779 36.72C45.2312 36.08 45.0179 35.6667 44.5379 35.48C44.1912 35.2933 43.5645 35.1467 42.6579 35.04L42.2179 34.96L42.4979 33.64C43.7512 33.88 45.1112 34 46.5779 34C48.0445 34 49.3245 33.88 50.4179 33.64C50.6312 34.6 50.8979 35.5067 51.2179 36.36L57.8579 53.68L58.3779 55.56L58.6579 55.64C58.7379 54.76 58.8579 54.12 59.0179 53.72L65.5379 36.6L66.4579 33.64Z" fill="#049357"/>
</svg>
