<svg width="50" height="50" viewBox="0 0 50 50" fill="none" xmlns="http://www.w3.org/2000/svg">
<path d="M24.9999 48.5224C37.9909 48.5224 48.5222 37.991 48.5222 25C48.5222 12.009 37.9909 1.47766 24.9999 1.47766C12.0089 1.47766 1.47754 12.009 1.47754 25C1.47754 37.991 12.0089 48.5224 24.9999 48.5224Z" fill="white"/>
<path d="M24.9999 48.5224C37.9909 48.5224 48.5222 37.991 48.5222 25C48.5222 12.009 37.9909 1.47766 24.9999 1.47766C12.0089 1.47766 1.47754 12.009 1.47754 25C1.47754 37.991 12.0089 48.5224 24.9999 48.5224Z" fill="white"/>
<path d="M25 49.6164C11.4265 49.6164 0.383545 38.5734 0.383545 24.9999C0.383545 11.4265 11.4265 0.383545 25 0.383545C38.5734 0.383545 49.6164 11.4265 49.6164 24.9999C49.6164 38.5734 38.5734 49.6164 25 49.6164ZM25 2.57167C12.6332 2.57167 2.57167 12.6332 2.57167 24.9999C2.57167 37.3667 12.6332 47.4282 25 47.4282C37.3667 47.4282 47.4282 37.3667 47.4282 24.9999C47.4282 12.6332 37.3667 2.57167 25 2.57167Z" fill="#4B4747"/>
<path d="M24.9999 48.5224C12.009 48.5224 1.47754 37.9909 1.47754 25C1.47754 12.0091 12.009 1.47766 24.9999 1.47766V48.5224Z" fill="#4B4747"/>
</svg>
